<svg id="Layer_1" data-name="Layer 1" xmlns="http://www.w3.org/2000/svg" width="64" height="64" viewBox="0 0 64 64"><defs><style>.cls-1{fill:#666;}</style></defs><title>sun_cloud</title><path class="cls-1" d="M50,32l-0.91,0A13.93,13.93,0,0,0,36,23a13.56,13.56,0,0,0-1.43.07,13,13,0,1,0-16.36,18A9,9,0,0,0,25,56H50A12,12,0,0,0,50,32ZM12,29a11,11,0,0,1,20.5-5.54A14,14,0,0,0,22,37a14.52,14.52,0,0,0,.08,1.48,8.93,8.93,0,0,0-2.14,1.07A10.94,10.94,0,0,1,12,29ZM50,54H25a7,7,0,0,1-1.59-13.82A1,1,0,0,0,24.17,39,12.57,12.57,0,0,1,24,37a12,12,0,0,1,23.46-3.58,1,1,0,0,0,1.16.68A9.06,9.06,0,0,1,50,34,10,10,0,0,1,50,54Z"/><path class="cls-1" d="M8,29a1,1,0,0,0-1-1H3a1,1,0,0,0,0,2H7A1,1,0,0,0,8,29Z"/><path class="cls-1" d="M22,9v4a1,1,0,1,0,2,0V9A1,1,0,0,0,22,9Z"/><path class="cls-1" d="M8.29,14.29a1,1,0,0,0,0,1.41l2,2A1,1,0,0,0,11,18a1,1,0,0,0,.71-0.29,1,1,0,0,0,0-1.41l-2-2A1,1,0,0,0,8.29,14.29Z"/><path class="cls-1" d="M36.29,14.29l-2,2A1,1,0,0,0,35,18a1,1,0,0,0,.71-0.29l2-2A1,1,0,0,0,36.29,14.29Z"/><path class="cls-1" d="M8.29,43.71a1,1,0,0,0,1.42,0l2-2A1,1,0,0,0,10.3,40.3l-2,2A1,1,0,0,0,8.29,43.71Z"/></svg>