<svg id="Layer_1" data-name="Layer 1" xmlns="http://www.w3.org/2000/svg" width="64" height="64" viewBox="0 0 64 64"><defs><style>.cls-1{fill:#666;}</style></defs><title>microphone</title><path id="microphone" class="cls-1" d="M33,42a9,9,0,0,1-9-9V13a9,9,0,0,1,18,0V33A9,9,0,0,1,33,42ZM33,6a7,7,0,0,0-7,7V33a7,7,0,0,0,14,0V13A7,7,0,0,0,33,6ZM45,22a1,1,0,0,0-1,1V33a11,11,0,0,1-22,0V23a1,1,0,0,0-2,0V33A13,13,0,0,0,32,45.95V58H27a1,1,0,0,0,0,2H39a1,1,0,0,0,0-2H34V45.95A13,13,0,0,0,46,33V23A1,1,0,0,0,45,22Z"/></svg>